<svg width="98" height="37" viewBox="0 0 98 37" fill="none" xmlns="http://www.w3.org/2000/svg">
<rect x="25" y="0.783203" width="48" height="2" fill="#FCDED6"/>
<path d="M8.04883 31.125C11.1934 31.125 13.5078 29.2695 13.8984 26.4863H11.7207C11.3301 28.0781 9.91406 29.084 8.04883 29.084C5.50977 29.084 3.92773 27.0234 3.92773 23.7422C3.92773 20.4512 5.50977 18.3906 8.03906 18.3906C9.89453 18.3906 11.3105 19.5039 11.7207 21.2324H13.8984C13.5469 18.3613 11.1445 16.3496 8.03906 16.3496C4.12305 16.3496 1.69141 19.1719 1.69141 23.7422C1.69141 28.3027 4.13281 31.125 8.04883 31.125ZM22.7852 16.3496C18.7422 16.3496 16.2031 19.1816 16.2031 23.7324C16.2031 28.2734 18.6934 31.125 22.7852 31.125C26.8672 31.125 29.3477 28.2637 29.3477 23.7324C29.3477 19.1914 26.8477 16.3496 22.7852 16.3496ZM22.7852 18.3906C25.4609 18.3906 27.1113 20.4609 27.1113 23.7324C27.1113 26.9844 25.4609 29.084 22.7852 29.084C20.0801 29.084 18.4395 26.9844 18.4395 23.7324C18.4395 20.4609 20.1289 18.3906 22.7852 18.3906ZM34.4355 30.7832V20.7734H34.5918L41.8281 30.7832H43.8008V16.6914H41.6719V26.7012H41.5156L34.2793 16.6914H32.3066V30.7832H34.4355ZM53.1074 30.7832V18.6836H57.5312V16.6914H46.4863V18.6836H50.9199V30.7832H53.1074ZM67.7168 30.7832H70.041L64.9531 16.6914H62.5996L57.5117 30.7832H59.7578L61.0566 27.043H66.4277L67.7168 30.7832ZM63.6641 19.25H63.8301L65.8711 25.207H61.6133L63.6641 19.25ZM77.6191 31.125C80.7637 31.125 83.0781 29.2695 83.4688 26.4863H81.291C80.9004 28.0781 79.4844 29.084 77.6191 29.084C75.0801 29.084 73.498 27.0234 73.498 23.7422C73.498 20.4512 75.0801 18.3906 77.6094 18.3906C79.4648 18.3906 80.8809 19.5039 81.291 21.2324H83.4688C83.1172 18.3613 80.7148 16.3496 77.6094 16.3496C73.6934 16.3496 71.2617 19.1719 71.2617 23.7422C71.2617 28.3027 73.7031 31.125 77.6191 31.125ZM91.6816 30.7832V18.6836H96.1055V16.6914H85.0605V18.6836H89.4941V30.7832H91.6816Z" fill="#FCDED6"/>
</svg>
