<svg width="96" height="37" viewBox="0 0 96 37" fill="none" xmlns="http://www.w3.org/2000/svg">
<rect x="24" y="0.680664" width="48" height="2" fill="#FCDED6"/>
<path d="M1.76758 16.5889V30.6807H3.95508V25.9346H7.2168C9.98047 25.9346 11.9336 24.04 11.9336 21.2861C11.9336 18.4932 10.0391 16.5889 7.28516 16.5889H1.76758ZM3.95508 18.5225H6.70898C8.63281 18.5225 9.69727 19.499 9.69727 21.2861C9.69727 23.0342 8.59375 24.0107 6.70898 24.0107H3.95508V18.5225ZM20.7617 16.2471C16.7188 16.2471 14.1797 19.0791 14.1797 23.6299C14.1797 28.1709 16.6699 31.0225 20.7617 31.0225C24.8438 31.0225 27.3242 28.1611 27.3242 23.6299C27.3242 19.0889 24.8242 16.2471 20.7617 16.2471ZM20.7617 18.2881C23.4375 18.2881 25.0879 20.3584 25.0879 23.6299C25.0879 26.8818 23.4375 28.9814 20.7617 28.9814C18.0566 28.9814 16.416 26.8818 16.416 23.6299C16.416 20.3584 18.1055 18.2881 20.7617 18.2881ZM30.2832 16.5889V30.6807H32.4707V25.9346H35.7324C38.4961 25.9346 40.4492 24.04 40.4492 21.2861C40.4492 18.4932 38.5547 16.5889 35.8008 16.5889H30.2832ZM32.4707 18.5225H35.2246C37.1484 18.5225 38.2129 19.499 38.2129 21.2861C38.2129 23.0342 37.1094 24.0107 35.2246 24.0107H32.4707V18.5225ZM45.498 16.5889H43.3105V25.8271C43.3105 28.8838 45.4785 31.0225 49.0137 31.0225C52.5488 31.0225 54.7266 28.8838 54.7266 25.8271V16.5889H52.5391V25.6318C52.5391 27.6045 51.2598 28.9717 49.0137 28.9717C46.7773 28.9717 45.498 27.6045 45.498 25.6318V16.5889ZM67.0801 28.6689H60.4785V16.5889H58.291V30.6807H67.0801V28.6689ZM78.9746 30.6807H81.2988L76.2109 16.5889H73.8574L68.7695 30.6807H71.0156L72.3145 26.9404H77.6855L78.9746 30.6807ZM74.9219 19.1475H75.0879L77.1289 25.1045H72.8711L74.9219 19.1475ZM85.9473 18.5127H89.0332C90.7227 18.5127 91.7578 19.4404 91.7578 20.9736C91.7578 22.5459 90.7812 23.4443 89.0918 23.4443H85.9473V18.5127ZM85.9473 25.3096H89.0332L91.9043 30.6807H94.4336L91.2695 24.9482C92.9883 24.3623 94.0039 22.8193 94.0039 20.9248C94.0039 18.2783 92.1777 16.5889 89.3359 16.5889H83.7598V30.6807H85.9473V25.3096Z" fill="#FCDED6"/>
</svg>
