<svg width="32" height="32" viewBox="0 0 32 32" fill="none" xmlns="http://www.w3.org/2000/svg">
<path fill-rule="evenodd" clip-rule="evenodd" d="M14.2342 5.05025C15.5705 3.7375 17.3829 3 19.2728 3H22.9373C23.4995 3 23.9552 3.44772 23.9552 4V8.8C23.9552 9.35228 23.4995 9.8 22.9373 9.8H19.2728C19.2188 9.8 19.167 9.82107 19.1288 9.85858C19.0906 9.89609 19.0692 9.94696 19.0692 10V12.6H22.9373C23.2508 12.6 23.5467 12.7419 23.7396 12.9846C23.9326 13.2273 24.0009 13.5438 23.9248 13.8425L22.7033 18.6425C22.59 19.0877 22.1829 19.4 21.7158 19.4H19.0692V28C19.0692 28.5523 18.6134 29 18.0512 29H13.1652C12.603 29 12.1472 28.5523 12.1472 28V19.4H9.5006C8.93841 19.4 8.48267 18.9523 8.48267 18.4V13.6C8.48267 13.0477 8.93841 12.6 9.5006 12.6H12.1472V10C12.1472 8.14348 12.8979 6.36301 14.2342 5.05025ZM19.2728 5C17.9229 5 16.6283 5.52678 15.6738 6.46447C14.7193 7.40215 14.1831 8.67392 14.1831 10V13.6C14.1831 14.1523 13.7273 14.6 13.1652 14.6H10.5185V17.4H13.1652C13.7273 17.4 14.1831 17.8477 14.1831 18.4V27H17.0333V18.4C17.0333 17.8477 17.489 17.4 18.0512 17.4H20.921L21.6336 14.6H18.0512C17.489 14.6 17.0333 14.1523 17.0333 13.6V10C17.0333 9.41652 17.2692 8.85694 17.6892 8.44436C18.1092 8.03179 18.6788 7.8 19.2728 7.8H21.9194V5H19.2728Z" fill="#F4F5F6"/>
</svg>
