<svg width="32" height="32" viewBox="0 0 32 32" fill="none" xmlns="http://www.w3.org/2000/svg">
<path fill-rule="evenodd" clip-rule="evenodd" d="M9.32433 16C9.32433 12.3131 12.3131 9.32433 16 9.32433C19.6869 9.32433 22.6757 12.3131 22.6757 16C22.6757 19.6869 19.6869 22.6757 16 22.6757C12.3131 22.6757 9.32433 19.6869 9.32433 16ZM16 20.3333C13.6068 20.3333 11.6667 18.3932 11.6667 16C11.6667 13.6068 13.6068 11.6667 16 11.6667C18.3932 11.6667 20.3333 13.6068 20.3333 16C20.3333 18.3932 18.3932 20.3333 16 20.3333Z" fill="#F4F5F6"/>
<path d="M22.9394 10.6206C23.801 10.6206 24.4994 9.92216 24.4994 9.06058C24.4994 8.19901 23.801 7.50056 22.9394 7.50056C22.0779 7.50056 21.3794 8.19901 21.3794 9.06058C21.3794 9.92216 22.0779 10.6206 22.9394 10.6206Z" fill="#F4F5F6"/>
<path fill-rule="evenodd" clip-rule="evenodd" d="M16 3C12.4694 3 12.0267 3.01497 10.6401 3.07823C9.25642 3.14134 8.3114 3.36112 7.48451 3.68251C6.62964 4.01468 5.90466 4.45919 5.1819 5.1819C4.45919 5.90466 4.01468 6.62964 3.68251 7.48451C3.36112 8.3114 3.14134 9.25642 3.07823 10.6401C3.01497 12.0267 3 12.4694 3 16C3 19.5306 3.01497 19.9733 3.07823 21.3599C3.14134 22.7436 3.36112 23.6886 3.68251 24.5155C4.01468 25.3704 4.45919 26.0953 5.1819 26.8181C5.90466 27.5408 6.62964 27.9853 7.48451 28.3175C8.3114 28.6389 9.25642 28.8587 10.6401 28.9218C12.0267 28.985 12.4694 29 16 29C19.5306 29 19.9733 28.985 21.3599 28.9218C22.7436 28.8587 23.6886 28.6389 24.5155 28.3175C25.3704 27.9853 26.0953 27.5408 26.8181 26.8181C27.5408 26.0953 27.9853 25.3704 28.3175 24.5155C28.6389 23.6886 28.8587 22.7436 28.9218 21.3599C28.985 19.9733 29 19.5306 29 16C29 12.4694 28.985 12.0267 28.9218 10.6401C28.8587 9.25642 28.6389 8.3114 28.3175 7.48451C27.9853 6.62964 27.5408 5.90466 26.8181 5.1819C26.0953 4.45919 25.3704 4.01468 24.5155 3.68251C23.6886 3.36112 22.7436 3.14134 21.3599 3.07823C19.9733 3.01497 19.5306 3 16 3ZM16 5.34234C19.4711 5.34234 19.8823 5.3556 21.2531 5.41814C22.5206 5.47594 23.2089 5.68772 23.667 5.86575C24.2738 6.10158 24.7069 6.38329 25.1618 6.83822C25.6167 7.29311 25.8984 7.72617 26.1343 8.33297C26.3123 8.79106 26.5241 9.4794 26.5819 10.7469C26.6444 12.1177 26.6577 12.5289 26.6577 16C26.6577 19.4711 26.6444 19.8823 26.5819 21.2531C26.5241 22.5206 26.3123 23.2089 26.1343 23.667C25.8984 24.2738 25.6167 24.7069 25.1618 25.1618C24.7069 25.6167 24.2738 25.8984 23.667 26.1342C23.2089 26.3123 22.5206 26.5241 21.2531 26.5819C19.8825 26.6444 19.4714 26.6577 16 26.6577C12.5286 26.6577 12.1175 26.6444 10.7469 26.5819C9.4794 26.5241 8.79106 26.3123 8.33297 26.1342C7.72617 25.8984 7.29311 25.6167 6.83823 25.1618C6.38334 24.7069 6.10158 24.2738 5.86576 23.667C5.68772 23.2089 5.47594 22.5206 5.41815 21.2531C5.3556 19.8823 5.34234 19.4711 5.34234 16C5.34234 12.5289 5.3556 12.1177 5.41815 10.7469C5.47594 9.4794 5.68772 8.79106 5.86576 8.33297C6.10158 7.72617 6.38329 7.29311 6.83823 6.83822C7.29311 6.38329 7.72617 6.10158 8.33297 5.86575C8.79106 5.68772 9.4794 5.47594 10.7469 5.41814C12.1177 5.3556 12.5289 5.34234 16 5.34234Z" fill="#F4F5F6"/>
</svg>
