<svg width="190" height="50" viewBox="0 0 190 50" fill="none" xmlns="http://www.w3.org/2000/svg">
<rect x="50" width="90" height="3" fill="#FCDED6"/>
<path d="M26.532 14.268V39H24.912V17.652L15.408 39H14.112L4.572 17.652V39H2.952V14.268H4.68L14.76 36.876L24.84 14.268H26.532ZM49.6913 32.52H37.7033L35.2913 39H33.5273L42.8153 14.304H44.6153L53.8673 39H52.1033L49.6913 32.52ZM49.1873 31.152L43.7153 16.428L38.2073 31.152H49.1873ZM74.4576 39L67.9776 28.236H67.8336H62.4336V39H60.8136V13.728H67.7616C70.5696 13.728 72.6696 14.388 74.0616 15.708C75.4776 17.028 76.1856 18.78 76.1856 20.964C76.1856 22.908 75.6336 24.516 74.5296 25.788C73.4496 27.036 71.8656 27.804 69.7776 28.092L76.4016 39H74.4576ZM62.4336 26.868H67.8336C70.0656 26.868 71.7336 26.328 72.8376 25.248C73.9416 24.168 74.4936 22.74 74.4936 20.964C74.4936 17.1 72.2496 15.168 67.7616 15.168H62.4336V26.868ZM85.4932 13.728V39H83.8732V13.728H85.4932ZM107.56 39L95.9318 27.084V39H94.3118V13.728H95.9318V25.752L107.56 13.728H109.648L97.3358 26.4L109.684 39H107.56ZM127.585 39.288C125.257 39.288 123.157 38.748 121.285 37.668C119.413 36.564 117.949 35.028 116.893 33.06C115.837 31.092 115.309 28.872 115.309 26.4C115.309 23.904 115.837 21.684 116.893 19.74C117.949 17.772 119.413 16.248 121.285 15.168C123.157 14.064 125.257 13.512 127.585 13.512C129.913 13.512 132.013 14.064 133.885 15.168C135.757 16.248 137.221 17.772 138.277 19.74C139.333 21.684 139.861 23.904 139.861 26.4C139.861 28.872 139.333 31.092 138.277 33.06C137.221 35.028 135.757 36.564 133.885 37.668C132.013 38.748 129.913 39.288 127.585 39.288ZM127.585 37.848C129.577 37.848 131.377 37.38 132.985 36.444C134.593 35.508 135.853 34.176 136.765 32.448C137.701 30.72 138.169 28.704 138.169 26.4C138.169 24.072 137.701 22.044 136.765 20.316C135.853 18.588 134.593 17.256 132.985 16.32C131.377 15.384 129.577 14.916 127.585 14.916C125.593 14.916 123.793 15.384 122.185 16.32C120.577 17.256 119.305 18.588 118.369 20.316C117.433 22.044 116.965 24.072 116.965 26.4C116.965 28.704 117.433 30.72 118.369 32.448C119.305 34.176 120.577 35.508 122.185 36.444C123.793 37.38 125.593 37.848 127.585 37.848ZM165.71 39H164.09L149.258 16.392V39H147.638V13.764H149.258L164.09 36.3V13.764H165.71V39ZM176.15 15.096V25.644H186.23V27.012H176.15V37.632H187.31V39H174.53V13.728H187.31V15.096H176.15Z" fill="#F4F5F6"/>
</svg>
