<svg width="106" height="22" viewBox="0 0 106 22" fill="none" xmlns="http://www.w3.org/2000/svg">
<rect x="35.25" width="35.5" height="1" fill="#FCDED6"/>
<path d="M14.74 7.26V21H13.84V9.14L8.56 21H7.84L2.54 9.14V21H1.64V7.26H2.6L8.2 19.82L13.8 7.26H14.74ZM27.6063 17.4H20.9463L19.6063 21H18.6263L23.7863 7.28H24.7863L29.9263 21H28.9463L27.6063 17.4ZM27.3263 16.64L24.2863 8.46L21.2263 16.64H27.3263ZM41.3653 21L37.7653 15.02H37.6853H34.6853V21H33.7853V6.96H37.6453C39.2053 6.96 40.372 7.32667 41.1453 8.06C41.932 8.79333 42.3253 9.76667 42.3253 10.98C42.3253 12.06 42.0186 12.9533 41.4053 13.66C40.8053 14.3533 39.9253 14.78 38.7653 14.94L42.4453 21H41.3653ZM34.6853 14.26H37.6853C38.9253 14.26 39.852 13.96 40.4653 13.36C41.0786 12.76 41.3853 11.9667 41.3853 10.98C41.3853 8.83333 40.1386 7.76 37.6453 7.76H34.6853V14.26ZM47.4962 6.96V21H46.5962V6.96H47.4962ZM59.7555 21L53.2955 14.38V21H52.3955V6.96H53.2955V13.64L59.7555 6.96H60.9155L54.0755 14L60.9355 21H59.7555ZM70.8805 21.16C69.5871 21.16 68.4205 20.86 67.3805 20.26C66.3405 19.6467 65.5271 18.7933 64.9405 17.7C64.3538 16.6067 64.0605 15.3733 64.0605 14C64.0605 12.6133 64.3538 11.38 64.9405 10.3C65.5271 9.20667 66.3405 8.36 67.3805 7.76C68.4205 7.14667 69.5871 6.84 70.8805 6.84C72.1738 6.84 73.3405 7.14667 74.3805 7.76C75.4205 8.36 76.2338 9.20667 76.8205 10.3C77.4071 11.38 77.7005 12.6133 77.7005 14C77.7005 15.3733 77.4071 16.6067 76.8205 17.7C76.2338 18.7933 75.4205 19.6467 74.3805 20.26C73.3405 20.86 72.1738 21.16 70.8805 21.16ZM70.8805 20.36C71.9871 20.36 72.9871 20.1 73.8805 19.58C74.7738 19.06 75.4738 18.32 75.9805 17.36C76.5005 16.4 76.7605 15.28 76.7605 14C76.7605 12.7067 76.5005 11.58 75.9805 10.62C75.4738 9.66 74.7738 8.92 73.8805 8.4C72.9871 7.88 71.9871 7.62 70.8805 7.62C69.7738 7.62 68.7738 7.88 67.8805 8.4C66.9871 8.92 66.2805 9.66 65.7605 10.62C65.2405 11.58 64.9805 12.7067 64.9805 14C64.9805 15.28 65.2405 16.4 65.7605 17.36C66.2805 18.32 66.9871 19.06 67.8805 19.58C68.7738 20.1 69.7738 20.36 70.8805 20.36ZM92.0612 21H91.1612L82.9212 8.44V21H82.0212V6.98H82.9212L91.1612 19.5V6.98H92.0612V21ZM97.8611 7.72V13.58H103.461V14.34H97.8611V20.24H104.061V21H96.9611V6.96H104.061V7.72H97.8611Z" fill="#F4F5F6"/>
</svg>
