<svg width="64" height="37" viewBox="0 0 64 37" fill="none" xmlns="http://www.w3.org/2000/svg">
<rect x="8" y="0.80957" width="48" height="2" fill="#FCDED6"/>
<path d="M1.10352 27.0205C1.25977 29.54 3.35938 31.1514 6.48438 31.1514C9.82422 31.1514 11.9141 29.4619 11.9141 26.7666C11.9141 24.6475 10.7227 23.4756 7.83203 22.8018L6.2793 22.4209C4.44336 21.9912 3.70117 21.415 3.70117 20.4092C3.70117 19.1396 4.85352 18.3096 6.58203 18.3096C8.22266 18.3096 9.35547 19.1201 9.56055 20.4189H11.6895C11.5625 18.0459 9.47266 16.376 6.61133 16.376C3.53516 16.376 1.48438 18.0459 1.48438 20.5557C1.48438 22.626 2.64648 23.8564 5.19531 24.4521L7.01172 24.8916C8.87695 25.3311 9.69727 25.9756 9.69727 27.0498C9.69727 28.2998 8.4082 29.208 6.65039 29.208C4.76562 29.208 3.45703 28.3584 3.27148 27.0205H1.10352ZM20.5566 30.8096V18.71H24.9805V16.7178H13.9355V18.71H18.3691V30.8096H20.5566ZM33.7402 30.8096V25.126L38.7109 16.7178H36.2793L32.7344 22.8213H32.5684L29.0234 16.7178H26.5918L31.5527 25.126V30.8096H33.7402ZM49.9707 28.7979H43.3691V16.7178H41.1816V30.8096H49.9707V28.7979ZM61.6895 28.8174H54.9316V24.5889H61.3281V22.6943H54.9316V18.71H61.6895V16.7178H52.7441V30.8096H61.6895V28.8174Z" fill="#FCDED6"/>
</svg>
